<?xml version="1.0" standalone="no"?>
<!DOCTYPE svg PUBLIC "-//W3C//DTD SVG 20010904//EN"
 "http://www.w3.org/TR/2001/REC-SVG-20010904/DTD/svg10.dtd">
<svg version="1.0" xmlns="http://www.w3.org/2000/svg"
 width="1024.000000pt" height="1024.000000pt" viewBox="0 0 1024.000000 1024.000000"
 preserveAspectRatio="xMidYMid meet">
<metadata>
Created by potrace 1.11, written by Peter Selinger 2001-2013
</metadata>
<g transform="translate(0.000000,1024.000000) scale(0.100000,-0.100000)"
fill="#000000" stroke="none">
<path d="M0 5120 l0 -5120 5120 0 5120 0 0 5120 0 5120 -5120 0 -5120 0 0
-5120z m3743 3003 c-298 -2 -788 -2 -1090 0 -301 1 -58 2 542 2 600 0 846 -1
548 -2z m3860 0 c-298 -2 -788 -2 -1090 0 -301 1 -57 2 542 2 600 0 846 -1
548 -2z m-5551 -18 c-23 -7 -50 -19 -59 -27 -14 -11 -16 -11 -9 0 10 17 64 41
91 41 11 0 1 -6 -23 -14z m2271 8 c-7 -2 -19 -2 -25 0 -7 3 -2 5 12 5 14 0 19
-2 13 -5z m1620 0 c-7 -2 -19 -2 -25 0 -7 3 -2 5 12 5 14 0 19 -2 13 -5z
m2271 -7 c19 -8 37 -20 42 -27 7 -12 5 -12 -9 -1 -9 8 -36 20 -59 27 -24 8
-35 14 -25 14 10 1 33 -5 51 -13z m-3821 -21 c20 -14 37 -28 37 -31 0 -3 -12
3 -27 14 -16 10 -37 24 -48 30 -11 6 -15 12 -10 12 6 0 27 -11 48 -25z m1492
13 c-11 -6 -32 -20 -47 -30 -16 -11 -28 -17 -28 -14 0 8 73 56 85 56 5 0 1 -6
-10 -12z m2439 -108 l6 -25 -13 26 c-6 14 -18 35 -26 45 -13 16 -12 16 6 -1
12 -11 24 -31 27 -45z m-6391 18 c-21 -43 -27 -49 -18 -18 7 23 23 50 30 50 2
0 -4 -15 -12 -32z m2532 -18 c9 -32 3 -25 -19 20 -12 25 -13 31 -3 20 8 -8 18
-26 22 -40z m1328 18 c-21 -43 -27 -49 -18 -18 7 23 23 50 30 50 2 0 -4 -15
-12 -32z m-3886 -451 c-1 -73 -3 -10 -3 138 0 149 2 208 3 132 2 -76 2 -198 0
-270z m2570 0 c-1 -73 -3 -10 -3 138 0 149 2 208 3 132 2 -76 2 -198 0 -270z
m1290 0 c-1 -73 -3 -10 -3 138 0 149 2 208 3 132 2 -76 2 -198 0 -270z m2570
1 c-1 -73 -3 -14 -3 132 0 146 2 205 3 133 2 -73 2 -193 0 -265z m-3872 -168
c-15 -47 -99 -120 -137 -120 -7 0 5 9 27 19 45 20 92 70 101 107 4 14 9 23 11
20 3 -2 2 -14 -2 -26z m1358 -59 c12 -13 40 -32 62 -42 22 -10 34 -19 27 -19
-47 -1 -143 95 -142 142 1 7 8 -3 16 -22 8 -19 25 -46 37 -59z m-3864 4 c9
-12 4 -8 -11 7 -16 16 -28 34 -28 41 0 6 6 3 12 -8 6 -11 18 -29 27 -40z
m6345 19 c-22 -32 -91 -84 -113 -84 -9 0 4 10 28 22 24 12 55 38 70 59 30 42
42 45 15 3z m-6250 -83 c-5 -6 -64 20 -64 29 0 4 15 0 34 -9 18 -9 32 -18 30
-20z m496 -2151 l0 -2150 -242 2 -243 3 238 2 237 3 0 2140 0 2140 -237 3
-238 2 243 3 242 2 0 -2150z m1528 2143 l-238 -3 -3 -858 -2 -857 -3 863 -2
862 243 -2 242 -3 -237 -2z m2330 -855 l-3 -863 -2 857 -3 858 -238 3 -237 2
243 3 242 2 -2 -862z m1530 855 l-238 -3 0 -2140 0 -2140 238 -3 237 -2 -242
-3 -243 -2 0 2150 0 2150 243 -2 242 -3 -237 -2z m-1528 -3428 l0 -865 -242 2
-243 3 238 2 237 3 0 855 0 855 -1280 0 -1280 0 0 -855 0 -855 238 -3 237 -2
-242 -3 -243 -2 0 865 0 865 1290 0 1290 0 0 -865z m-4389 -887 c-24 -11 -56
-39 -72 -61 -31 -43 -40 -43 -12 0 21 32 90 83 112 83 9 0 -4 -10 -28 -22z
m2348 8 c51 -27 115 -115 97 -133 -3 -4 -6 0 -6 9 0 29 -61 99 -103 119 -23
10 -36 19 -29 19 7 0 26 -7 41 -14z m1531 3 c-46 -18 -92 -61 -111 -103 -10
-22 -19 -34 -19 -26 0 42 99 141 139 139 10 0 6 -4 -9 -10z m2348 -15 c30 -21
82 -93 82 -113 0 -9 -10 4 -22 28 -11 24 -39 56 -61 72 -22 16 -36 29 -31 29
5 0 20 -7 32 -16z m-6341 -526 c-1 -73 -3 -14 -3 132 0 146 2 205 3 133 2 -73
2 -193 0 -265z m2570 -11 c-1 -73 -3 -10 -3 138 0 149 2 208 3 132 2 -76 2
-198 0 -270z m1290 0 c-1 -73 -3 -10 -3 138 0 149 2 208 3 132 2 -76 2 -198 0
-270z m2570 11 c-1 -73 -3 -14 -3 132 0 146 2 205 3 133 2 -73 2 -193 0 -265z
m-6388 -214 c13 -16 12 -16 -6 1 -12 11 -24 31 -27 45 l-6 25 13 -26 c6 -14
18 -35 26 -45z m2512 34 c-5 -13 -17 -30 -27 -38 -18 -14 -18 -14 -3 5 9 11
20 30 24 43 4 13 9 22 11 19 3 -2 0 -15 -5 -29z m1333 -8 c12 -25 13 -31 3
-20 -8 8 -18 26 -22 40 -9 32 -3 25 19 -20z m2527 8 c-5 -13 -17 -30 -27 -38
-18 -14 -18 -14 -3 5 9 11 20 30 24 43 4 13 9 22 11 19 3 -2 0 -15 -5 -29z
m-6269 -103 c24 -8 35 -14 25 -14 -27 -1 -80 24 -97 45 -14 19 -14 19 7 1 12
-10 41 -25 65 -32z m6207 28 c-16 -19 -71 -43 -96 -42 -10 0 3 7 28 15 26 7
52 21 59 29 7 8 15 15 17 15 3 0 -1 -7 -8 -17z m-3865 -4 c-8 -14 -68 -39 -91
-38 -10 0 3 7 29 15 26 8 50 19 53 24 3 6 8 10 11 10 3 0 2 -5 -2 -11z m1541
-30 c11 0 14 -3 8 -6 -17 -6 -79 15 -93 32 -7 8 3 6 27 -6 20 -10 46 -19 58
-20z m-2203 -16 c-298 -2 -786 -2 -1085 0 -298 1 -54 2 543 2 597 0 841 -1
542 -2z m3860 0 c-298 -2 -786 -2 -1085 0 -298 1 -54 2 543 2 597 0 841 -1
542 -2z"/>
</g>
</svg>
